<?xml version="1.0" standalone="no"?>
<!DOCTYPE svg PUBLIC "-//W3C//DTD SVG 20010904//EN"
 "http://www.w3.org/TR/2001/REC-SVG-20010904/DTD/svg10.dtd">
<svg version="1.0" xmlns="http://www.w3.org/2000/svg"
 width="300.000000pt" height="300.000000pt" viewBox="0 0 300.000000 300.000000"
 preserveAspectRatio="xMidYMid meet">
<metadata>
Created by potrace 1.10, written by Peter Selinger 2001-2011
</metadata>
<g transform="translate(108.500000,300.000000) scale(0.100000,-0.100000)"
fill="#000000" stroke="none">
<path d="M423 2990 c-67 -15 -122 -68 -182 -170 -105 -178 -192 -531 -220
-890 -13 -160 -13 -685 0 -855 39 -525 190 -962 362 -1051 41 -22 123 -22 164
0 172 88 320 517 362 1046 13 160 13 686 0 855 -27 362 -116 719 -224 904 -75
128 -166 184 -262 161z m12 -1490 c0 -1165 -2 -1430 -13 -1430 -28 0 -109 97
-149 180 -250 516 -283 1668 -67 2330 25 74 63 168 87 209 39 68 107 141 131
141 8 0 11 -421 11 -1430z m133 1383 c198 -199 331 -928 294 -1606 -7 -122
-19 -274 -27 -337 -52 -402 -163 -737 -279 -836 -22 -19 -44 -34 -50 -34 -8 0
-11 421 -11 1430 0 1165 2 1430 13 1430 7 0 34 -21 60 -47z"/>
</g>
</svg>
