<?xml version="1.0" standalone="no"?>
<!DOCTYPE svg PUBLIC "-//W3C//DTD SVG 20010904//EN"
 "http://www.w3.org/TR/2001/REC-SVG-20010904/DTD/svg10.dtd">
<svg version="1.0" xmlns="http://www.w3.org/2000/svg"
 width="100%" height="100%" viewBox="0 0 300 300"
 preserveAspectRatio="xMidYMid meet" style="display:block; margin: auto;">
<metadata>
Created by potrace 1.10, written by Peter Selinger 2001-2011
</metadata>
<g transform="translate(0.000000,300.000000) scale(0.100000,-0.100000)"
fill="#000000" stroke="none">
<path d="M1558 2621 c-126 -41 -181 -202 -107 -314 52 -79 153 -115 240 -86
215 72 177 395 -48 406 -32 1 -70 -2 -85 -6z m114 -51 c21 -6 51 -27 72 -50
31 -35 36 -47 36 -91 0 -114 -95 -191 -197 -159 -120 39 -152 182 -60 268 40
38 89 48 149 32z"/>
<path d="M1399 2070 c-15 -4 -44 -19 -65 -34 -27 -18 -52 -26 -84 -26 -25 0
-121 -11 -215 -25 -447 -64 -726 -178 -781 -320 -16 -42 -16 -48 0 -90 33 -85
167 -171 359 -230 85 -27 88 -29 82 -54 -12 -59 -25 -223 -25 -331 -1 -140
-19 -249 -53 -316 -30 -57 -103 -130 -168 -168 -64 -36 -217 -74 -338 -82 -97
-7 -101 -8 -101 -30 0 -23 3 -24 63 -24 81 0 233 25 310 51 153 51 257 150
308 294 17 50 22 96 29 272 5 117 11 228 15 248 3 19 7 50 10 68 l5 33 108
-22 c129 -27 331 -52 502 -61 l125 -6 108 -136 c102 -129 114 -151 251 -428
117 -236 149 -293 165 -293 10 0 21 6 24 13 2 6 -58 137 -134 289 l-139 278 0
140 0 140 53 0 c87 0 374 29 493 50 329 58 576 157 654 262 51 69 33 160 -44
222 -169 137 -610 247 -1056 263 -141 5 -180 9 -200 23 -14 9 -40 22 -59 28
-38 13 -162 15 -202 2z m156 -40 c19 -8 18 -9 -5 -11 -14 -1 -41 -3 -60 -5
-19 -2 -46 -1 -60 2 -23 6 -24 7 -5 14 26 11 105 11 130 0z m440 -71 c286 -24
522 -72 716 -147 113 -43 229 -126 229 -163 0 -5 -407 -9 -915 -9 l-915 0 0
21 c0 41 141 250 194 289 38 27 418 32 691 9z m-755 -5 c0 -3 -17 -27 -38 -53
-79 -96 -145 -208 -140 -239 3 -16 -24 -17 -379 -20 -233 -1 -383 1 -383 7 0
18 50 69 98 100 113 72 314 135 564 175 218 36 278 42 278 30z m-177 -500 c-1
-80 -4 -148 -6 -150 -7 -7 -145 16 -277 47 -142 34 -236 66 -330 112 -65 32
-150 103 -150 125 0 9 97 12 383 12 l382 0 -2 -146z m1877 136 c0 -22 -88 -92
-160 -129 -248 -126 -677 -197 -1175 -194 -210 1 -270 4 -420 18 l-80 8 3 153
3 154 914 0 c627 0 915 -3 915 -10z m-1232 -475 l2 -100 -27 35 c-16 19 -52
65 -81 103 l-54 68 79 -3 78 -3 3 -100z"/>
<path d="M1410 614 c-81 -117 -139 -212 -136 -220 8 -21 39 -16 57 9 8 12 71
104 139 204 105 155 121 184 110 197 -7 9 -16 16 -21 16 -4 0 -71 -93 -149
-206z"/>
</g>
</svg>
