<svg width="300" height="300" viewBox="0 0 300 300" fill="none" xmlns="http://www.w3.org/2000/svg">
<path d="M150 56.25C162.944 56.25 173.438 45.7567 173.438 32.8125C173.438 19.8683 162.944 9.375 150 9.375C137.056 9.375 126.562 19.8683 126.562 32.8125C126.562 45.7567 137.056 56.25 150 56.25Z" stroke="#0C0C0C" stroke-width="10" stroke-linejoin="round"/>
<path d="M119.666 160.805C121.366 150.223 122.127 139.993 119.373 132.921C117.03 126.839 111.932 123.434 105.78 121.114L51.5629 103.571C44.5317 101.227 37.9633 97.3015 37.5004 89.5437C36.9145 79.5827 45.7035 73.1374 54.4926 75.4812C54.4926 75.4812 106.055 93.7272 150 93.7272C193.946 93.7272 244.922 75.5632 244.922 75.5632C255.469 72.6335 262.5 80.8366 262.5 89.5026C262.5 97.8288 256.055 100.758 248.438 103.53L196.875 122.227C192.188 123.985 184.571 127.501 181.641 132.88C178.125 139.178 178.711 150.182 180.41 160.764L183.867 178.126L205.787 274.161C207.428 281.866 202.096 289.067 194.42 290.415C186.744 291.762 180.469 286.524 178.196 279.071L156.188 211.143C155.129 207.885 154.192 204.591 153.375 201.259L150 187.501L146.895 200.186C145.91 204.229 144.778 208.229 143.496 212.186L121.875 279.012C119.532 286.542 113.379 291.757 105.703 290.415C98.0277 289.073 92.5785 281.28 94.3012 274.161L116.209 178.167L119.666 160.805Z" stroke="#0C0C0C" stroke-width="10" stroke-linejoin="round"/>
</svg>
