<?xml version="1.0" standalone="no"?>
<!DOCTYPE svg PUBLIC "-//W3C//DTD SVG 20010904//EN"
 "http://www.w3.org/TR/2001/REC-SVG-20010904/DTD/svg10.dtd">
<svg version="1.0" xmlns="http://www.w3.org/2000/svg"
 width="100%" height="100%" viewBox="0 0 300 300"
 preserveAspectRatio="xMidYMid meet" style="display:block; margin: auto;">
<metadata>
Created by potrace 1.10, written by Peter Selinger 2001-2011
</metadata>
<g transform="translate(0.000000,300.000000) scale(0.100000,-0.100000)"
fill="#000000" stroke="none">
<path d="M1402 2965 c-154 -67 -281 -306 -348 -651 -49 -256 -68 -506 -69
-879 0 -642 97 -1144 258 -1330 29 -34 46 -43 108 -60 92 -24 202 -24 297 -1
62 16 77 24 108 60 146 169 245 622 261 1201 12 439 -37 933 -121 1210 -71
239 -178 399 -300 450 -45 19 -151 19 -194 0z m186 -97 c47 -29 117 -119 157
-203 72 -153 131 -416 162 -728 17 -178 26 -774 11 -809 -7 -17 -36 -18 -418
-18 -382 0 -411 1 -418 18 -12 30 -8 600 6 757 34 379 106 683 199 843 38 64
124 149 164 161 43 13 95 5 137 -21z m320 -1861 c2 -10 1 -29 -2 -43 l-6 -24
-399 0 c-354 0 -400 2 -405 16 -8 21 -8 59 1 67 4 4 187 6 407 5 379 -3 401
-4 404 -21z m-23 -224 c-12 -113 26 -103 -385 -103 -411 0 -373 -10 -385 103
l-7 67 392 0 392 0 -7 -67z m-41 -201 c3 -5 1 -25 -5 -45 l-10 -37 -329 0
-329 0 -10 37 c-6 20 -8 40 -5 45 7 11 681 11 688 0z m-46 -184 c5 -26 -66
-183 -101 -223 -28 -32 -42 -38 -114 -52 -76 -15 -90 -15 -164 0 -53 10 -90
23 -104 37 -44 41 -123 215 -111 245 5 13 41 15 298 13 265 -3 293 -5 296 -20z"/>
</g>
</svg>
