<svg width="382" height="370" viewBox="0 0 382 370" fill="none" xmlns="http://www.w3.org/2000/svg">
    <path d="M286.25 173.469H71.9375V98.5156C71.9611 90.8769 75.1046 83.5576 80.6817 78.1563C86.2587 72.7549 93.816 69.7103 101.703 69.6875H280.297C288.184 69.7103 295.741 72.7549 301.318 78.1563C306.895 83.5576 310.039 90.8769 310.062 98.5156V173.469H286.25Z" stroke="#0C0C0C" stroke-width="10" stroke-linecap="round" stroke-linejoin="round"/>
    <path d="M36.2188 300.312V219.594C36.256 207.372 41.2856 195.661 50.209 187.018C59.1323 178.376 71.2243 173.505 83.8438 173.469H298.156C310.776 173.505 322.868 178.376 331.791 187.018C340.714 195.661 345.744 207.372 345.781 219.594V300.312" stroke="#0C0C0C" stroke-width="10" stroke-linecap="round" stroke-linejoin="round"/>
    <path d="M36.2188 300.312V294.547C36.2325 289.964 38.1185 285.572 41.4648 282.331C44.8111 279.09 49.3458 277.263 54.0781 277.25H327.922C332.654 277.263 337.189 279.09 340.535 282.331C343.882 285.572 345.768 289.964 345.781 294.547V300.312" stroke="#0C0C0C" stroke-width="10" stroke-linecap="round" stroke-linejoin="round"/>
    <path d="M83.8438 173.469V161.938C83.8614 155.826 86.3759 149.97 90.8378 145.649C95.2997 141.327 101.346 138.892 107.656 138.875H167.188C173.498 138.892 179.544 141.327 184.006 145.649C188.468 149.97 190.982 155.826 191 161.938V173.469" stroke="#0C0C0C" stroke-width="10" stroke-linecap="round" stroke-linejoin="round"/>
    <path d="M191 173.469V161.938C191.018 155.826 193.532 149.97 197.994 145.649C202.456 141.327 208.502 138.892 214.812 138.875H274.344C280.654 138.892 286.7 141.327 291.162 145.649C295.624 149.97 298.139 155.826 298.156 161.938V173.469" stroke="#0C0C0C" stroke-width="10" stroke-linecap="round" stroke-linejoin="round"/>
    </svg>
    