<?xml version="1.0" standalone="no"?>
<!DOCTYPE svg PUBLIC "-//W3C//DTD SVG 20010904//EN"
 "http://www.w3.org/TR/2001/REC-SVG-20010904/DTD/svg10.dtd">
<svg version="1.0" xmlns="http://www.w3.org/2000/svg"
 width="100%" height="100%" viewBox="0 0 300 300"
 preserveAspectRatio="xMidYMid meet" style="display:block; margin: auto;">
<metadata>
Created by potrace 1.10, written by Peter Selinger 2001-2011
</metadata>
<g transform="translate(0.000000,300.000000) scale(0.100000,-0.100000)"
fill="#000000" stroke="none">
<path d="M1230 2816 c0 -61 4 -58 -93 -75 -71 -13 -201 -52 -282 -86 -49 -21
-66 -34 -91 -73 -84 -128 -170 -426 -195 -672 -15 -143 -26 -561 -15 -567 6
-4 263 -7 311 -4 7 1 9 36 7 99 -6 161 13 289 68 447 28 80 46 71 48 -22 1
-43 10 -132 22 -198 21 -127 25 -257 10 -340 -5 -27 -17 -99 -25 -160 -9 -60
-25 -166 -37 -235 -25 -144 -28 -167 -32 -235 -2 -27 -11 -95 -20 -150 -27
-163 -32 -347 -11 -430 10 -38 22 -76 27 -82 8 -10 74 -13 269 -13 143 0 259
3 259 8 0 4 5 39 10 77 5 39 12 149 15 245 6 156 14 205 30 189 8 -8 27 -261
22 -294 -2 -16 1 -73 7 -125 l11 -95 264 0 264 0 15 40 c31 86 27 338 -9 560
-7 39 -11 81 -11 95 2 28 -22 179 -44 283 -8 38 -12 73 -9 77 5 8 -14 127 -35
217 -26 111 -23 194 11 398 15 92 17 110 18 173 1 43 4 52 19 52 13 0 25 -25
52 -107 33 -104 34 -115 38 -290 2 -101 8 -183 13 -184 58 -4 299 0 309 6 10
6 11 55 6 239 -4 127 -9 249 -11 271 -12 108 -28 208 -47 280 -11 44 -22 91
-23 105 -3 35 -16 83 -25 95 -5 6 -13 30 -20 55 -16 59 -66 166 -97 207 -14
18 -49 43 -78 57 -63 28 -233 80 -322 97 l-61 11 5 54 6 54 -272 0 -271 0 0
-54z m477 -22 c18 -48 -59 -76 -207 -77 -149 0 -225 28 -207 77 6 14 30 16
207 16 177 0 201 -2 207 -16z m-394 -113 c5 -5 1 -21 -11 -38 -30 -44 -55 -85
-75 -123 -10 -19 -28 -52 -40 -72 -12 -20 -37 -65 -56 -100 -19 -35 -45 -80
-58 -101 -13 -20 -39 -66 -58 -102 -19 -35 -46 -80 -59 -99 -38 -57 -102 -196
-121 -266 -10 -36 -18 -100 -18 -142 l-1 -78 -103 0 -103 0 6 143 c3 78 9 162
14 187 5 25 16 90 26 145 31 190 95 397 151 489 34 56 99 90 253 130 52 14
109 30 125 35 33 11 114 6 128 -8z m589 -17 c199 -56 244 -77 279 -129 29 -45
81 -167 99 -235 7 -25 16 -56 21 -70 15 -40 60 -297 69 -390 8 -77 13 -219 11
-262 -1 -16 -13 -18 -102 -18 l-102 0 6 33 c16 103 -67 360 -150 460 -13 16
-23 34 -23 41 0 8 -8 24 -18 37 -17 22 -71 117 -110 194 -9 17 -30 52 -49 80
-18 27 -33 53 -33 58 0 4 -20 41 -45 81 -25 41 -45 79 -45 84 0 5 -7 15 -15
22 -21 17 -19 29 8 40 30 13 88 6 199 -26z m-402 -16 c41 1 86 3 100 5 17 1
26 -4 28 -18 4 -15 48 -96 102 -185 5 -8 17 -31 27 -50 15 -30 105 -185 134
-230 5 -8 17 -31 25 -50 9 -19 25 -48 36 -63 17 -24 19 -37 13 -90 -4 -34 -11
-72 -16 -84 -4 -12 -11 -48 -14 -80 -3 -32 -8 -71 -10 -88 -3 -16 -6 -60 -9
-96 -7 -123 -8 -124 -79 -138 -34 -6 -124 -17 -200 -23 -142 -12 -321 -3 -478
23 l-67 12 -7 71 c-5 39 -9 91 -10 116 -3 63 -23 193 -42 272 -15 64 -15 69 3
95 11 15 37 60 59 99 44 79 138 247 171 306 12 21 26 43 31 50 6 7 28 46 48
86 33 63 41 71 59 66 12 -4 55 -7 96 -6z m-680 -1203 l0 -45 -105 0 -105 0 0
45 0 45 105 0 105 0 0 -45z m1568 3 l-3 -43 -102 -3 -103 -3 0 46 0 45 106 0
105 0 -3 -42z m-1153 -45 c147 -20 576 -9 624 17 26 14 29 13 41 -10 9 -16 28
-163 32 -240 0 -8 8 -55 18 -105 10 -49 21 -119 24 -155 4 -36 14 -105 22
-155 45 -262 64 -517 44 -594 -7 -25 -14 -54 -17 -63 -4 -16 -23 -18 -214 -18
l-209 0 -1 43 c-2 134 -34 396 -54 443 -8 19 -21 37 -30 40 -24 10 -65 -16
-65 -41 0 -11 -4 -25 -9 -30 -8 -9 -15 -65 -38 -300 -3 -27 -5 -63 -4 -80 0
-16 -2 -40 -5 -52 -4 -23 -5 -23 -213 -23 -190 0 -210 2 -216 18 -4 9 -10 68
-12 130 -6 123 8 290 39 472 10 63 21 140 23 170 5 53 35 229 55 318 6 24 8
48 4 53 -5 8 12 144 22 178 3 8 10 10 22 6 9 -4 62 -14 117 -22z"/>
</g>
</svg>
